<?xml version="1.0" encoding="UTF-8"?>
<svg width="457px" height="24px" viewBox="0 0 457 24" version="1.1" xmlns="http://www.w3.org/2000/svg" xmlns:xlink="http://www.w3.org/1999/xlink">
    <!-- Generator: Sketch 43.1 (39012) - http://www.bohemiancoding.com/sketch -->
    <title>Group 45</title>
    <desc>Created with Sketch.</desc>
    <defs>
        <path d="M18.4511714,15.2099696 L20.0496366,17.8846923 C20.4285869,18.5187924 20.2088656,19.3267325 19.5486658,19.6949714 C18.893037,20.0606608 18.0548629,19.8439376 17.6753946,19.2089707 L16.0769295,16.5342481 L13.7048719,17.8573081 C12.8294938,18.3455669 12.163075,17.9510451 12.2160949,16.981405 L12.5985843,9.98635747 C12.6517336,9.0143508 13.424905,8.58539416 14.3206281,9.02585491 L20.782433,12.2033677 C21.6803421,12.6449034 21.7010792,13.397272 20.823229,13.8869096 L18.4511714,15.2099696 L18.4511714,15.2099696 Z" id="path-1"></path>
        <ellipse id="path-2" cx="2.912" cy="18.8989247" rx="2.912" ry="2.90752688"></ellipse>
        <ellipse id="path-3" cx="18.928" cy="18.8989247" rx="2.912" ry="2.90752688"></ellipse>
        <ellipse id="path-4" cx="18.928" cy="2.90752688" rx="2.912" ry="2.90752688"></ellipse>
        <ellipse id="path-5" cx="2.912" cy="2.90752688" rx="2.912" ry="2.90752688"></ellipse>
        <polygon id="path-6" points="0.000804878049 0.0107317073 0.000804878049 10.9999866 10.9892549 10.9999866 10.9892549 0.0107317073 0.000804878049 0.0107317073"></polygon>
    </defs>
    <g id="Page-1" stroke="none" stroke-width="1" fill="none" fill-rule="evenodd">
        <g id="Artboard-2" transform="translate(-779.000000, -934.000000)">
            <g id="Group-45" transform="translate(776.000000, 931.500000)">
                <g id="Group-14" transform="translate(188.000000, 3.000000)">
                    <rect id="Rectangle-6" x="0" y="0" width="25.2" height="25.1612903"></rect>
                    <path d="M13.0199877,2.51612903 C8.61890775,2.51612903 5.04,6.08953923 5.04,10.4838832 C5.04,13.0552698 6.24104592,14.781628 7.81284789,16.7735666 C9.06208418,18.3571453 10.7413024,20.3586365 12.7580697,21.9326867 C12.8168825,21.9785891 12.7580697,21.9326867 12.7580697,21.9326867 C12.9895353,22.1103642 13.5378167,21.9812922 13.6177931,21.9202034 C13.6177931,21.9202034 13.553011,21.9704094 13.6177931,21.9202034 C15.7159493,20.2941348 17.6591318,18.1353483 18.9727476,15.9727484 C20.0246499,14.2343306 21,12.367163 21,10.4798552 C21,6.08953923 17.4210923,2.51612903 13.0199877,2.51612903 Z M9.50961275,10.4838832 C9.50961275,8.47583254 11.1459133,6.84204553 13.1570287,6.84204553 C15.1681441,6.84204553 16.8044446,8.47583254 16.8044446,10.4838832 C16.8044446,12.4919094 15.1681441,14.1256964 13.1570287,14.1256964 C11.1459133,14.1256964 9.50961275,12.4919094 9.50961275,10.4838832 Z" id="位置" stroke="#0078FF" fill="#C9D3E0"></path>
                </g>
                <g id="移动" transform="translate(353.000000, 0.000000)">
                    <rect id="Rectangle-8" x="0" y="2" width="26" height="26"></rect>
                    <g id="ic_share" transform="translate(28.000000, 0.500000)" stroke="#0078FF" stroke-linejoin="round">
                        <g id="share" transform="translate(4.333333, 3.250000)">
                            <circle id="Oval-3" fill="#C9D3E0" stroke-linecap="round" cx="14.0833333" cy="3.25" r="3.25"></circle>
                            <ellipse id="Oval-3-Copy" fill="#C9D3E0" stroke-linecap="round" cx="3.25" cy="10.8333333" rx="3.25" ry="3.25"></ellipse>
                            <ellipse id="Oval-3-Copy-2" fill="#C9D3E0" stroke-linecap="round" cx="14.0833333" cy="17.3333333" rx="3.25" ry="3.25"></ellipse>
                            <path d="M6.5,8.66666667 L10.8333333,5.41666667" id="Line" stroke-linecap="square"></path>
                            <path d="M6.5,13 L10.8333333,15.1666667" id="Line" stroke-linecap="square"></path>
                        </g>
                    </g>
                    <g id="测量线" transform="translate(56.000000, 0.500000)">
                        <g id="Group-50" transform="translate(4.000000, 3.000000)">
                            <path d="M17.446996,5.60974665 C17.8399928,5.21552999 17.8407473,4.57848416 17.4521039,4.19028368 L13.7841675,0.526527311 C13.3939917,0.136796221 12.7635777,0.135943126 12.3661003,0.534650725 L0.553903977,12.3834079 C0.160902857,12.7776254 0.160153943,13.4146701 0.548808529,13.8028683 L4.21685062,17.4666036 C4.6070376,17.8563324 5.23745731,17.8571844 5.63493025,17.4584777 L17.446996,5.60974665 Z" id="Fill-1" fill="#0078FF"></path>
                            <path d="M2.51174284,11.5341377 L3.80131363,10.2443766 L5.40867623,11.8510054 C5.6086031,12.050841 5.92290933,12.0487919 6.11805538,11.8537817 L6.05755438,11.9142406 C6.24783771,11.7240898 6.2513695,11.4018071 6.05458167,11.2052557 L4.44649442,9.59910065 L5.73688645,8.3085182 L7.34477219,9.91566955 C7.54486431,10.1156703 7.85929957,10.1137501 8.05444562,9.91873993 L7.99394462,9.97919879 C8.18422795,9.78904797 8.18775332,9.46676529 7.99095756,9.27021391 L6.38202757,7.66328188 L7.6704879,6.37463142 L9.28116243,7.98330583 C9.48125455,8.18314948 9.79513091,8.18107799 9.98958753,7.9860325 L9.92930028,8.04650232 C10.1189113,7.85631705 10.1218606,7.53401127 9.92506487,7.33746781 L8.3152787,5.72974547 L9.60563369,4.43920007 L11.215447,6.04827839 C11.4153738,6.24811398 11.7297087,6.2460362 11.9248901,6.05099072 L11.8643782,6.11146054 C12.054696,5.92127527 12.0582509,5.59896949 11.8614551,5.40242603 L10.2508514,3.79388716 L11.5400578,2.50449053 L14.4209836,5.38378979 C14.6183775,5.58107219 14.9351721,5.58146457 15.1303535,5.38645441 L15.0698416,5.44691328 C15.2601594,5.25676246 15.2638788,4.93453173 15.0672861,4.73804443 L12.1860743,1.85837869 L12.4955092,1.54889806 C12.7927634,1.2516 13.2905784,1.24614288 13.5943458,1.54977551 L16.4499805,4.40414361 C16.7525549,4.70658377 16.7542886,5.19966869 16.4511881,5.50281614 L5.50459949,16.451103 C5.20734811,16.7484005 4.70952842,16.7538585 4.4057523,16.4502277 L1.55003532,13.595876 C1.24745223,13.2934376 1.24571377,12.8003536 1.54881707,12.4972056 L1.86668728,12.1792885 L4.74369853,15.0565297 C4.94108547,15.2539324 5.25787457,15.2543927 5.45305598,15.0593473 L5.39254402,15.1198171 C5.58286182,14.9296318 5.5865824,14.6073704 5.38999099,14.4108818 L2.51174284,11.5341377 Z" id="Combined-Shape" fill="#C9D3E0"></path>
                            <path d="M0.749326829,18.967468 C0.749326829,19.2436103 0.967216302,19.467468 1.24649356,19.467468 L17.4852138,19.467468 C17.7597914,19.467468 17.9823805,19.2355344 17.9823805,18.967468 L17.9823805,18.967468 C17.9823805,18.6913256 17.764491,18.467468 17.4852138,18.467468 L1.24649356,18.467468 C0.971915958,18.467468 0.749326829,18.6994016 0.749326829,18.967468 L0.749326829,18.967468 Z" id="Path" fill="#0078FF"></path>
                        </g>
                    </g>
                    <g id="测量面积" transform="translate(84.000000, 0.500000)">
                        <g id="Group-50" transform="translate(4.000000, 4.000000)">
                            <g id="面积量测">
                                <path d="M18.5213854,15.5206857 L4.30295995,15.5206857 C3.75154797,15.5206857 3.30454024,15.0704793 3.30454024,14.522024 L3.30454024,0.477707674 C3.30454024,0.225408039 3.50909146,0.0212679659 3.76188415,0.0212679659 C4.0147,0.0212679659 4.21925122,0.225408039 4.21925122,0.477707674 L4.21925122,14.1050202 C4.21925122,14.3827652 4.44390214,14.607922 4.72826845,14.607922 L18.5212927,14.607922 C18.7740854,14.607922 18.9786366,14.812039 18.9786366,15.0643618 C18.9786366,15.3165688 18.774178,15.5206857 18.5213854,15.5206857 Z" id="Fill-1" fill="#0078FF"></path>
                                <path d="M14.952189,18.9768806 C14.6993963,18.9768806 14.494822,18.7726711 14.494822,18.5204641 L14.494822,16.2829537 L15.4095329,16.2829537 L15.4095329,18.5204641 C15.4095329,18.7726711 15.2049817,18.9768806 14.952189,18.9768806 Z M10.952189,18.9768806 C10.6993963,18.9768806 10.494822,18.7726711 10.494822,18.5204641 L10.494822,16.2829537 L11.4095329,16.2829537 L11.4095329,18.5204641 C11.4095329,18.7726711 11.2049817,18.9768806 10.952189,18.9768806 Z M6.95218902,18.9768806 C6.69939634,18.9768806 6.49482195,18.7726711 6.49482195,18.5204641 L6.49482195,16.2829537 L7.40953293,16.2829537 L7.40953293,18.5204641 C7.40953293,18.7726711 7.20498171,18.9768806 6.95218902,18.9768806 Z M0,3.78528136 C0,3.53295859 0.20455122,3.32884166 0.457343902,3.32884166 L2.69948293,3.32884166 L2.69948293,4.24160536 L0.457343902,4.24160536 C0.20455122,4.24160536 0,4.03748843 0,3.78528136 Z M0,7.78528136 C0,7.53295859 0.20455122,7.32884166 0.457343902,7.32884166 L2.69948293,7.32884166 L2.69948293,8.24160536 L0.457343902,8.24160536 C0.20455122,8.24160536 0,8.03748843 0,7.78528136 Z M0,11.7852814 C0,11.5329586 0.20455122,11.3288417 0.457343902,11.3288417 L2.69948293,11.3288417 L2.69948293,12.2416054 L0.457343902,12.2416054 C0.20455122,12.2416054 0,12.0374884 0,11.7852814 Z" id="Fill-3" fill="#0078FF"></path>
                                <g id="Group-46" transform="translate(5.000000, 2.000000)">
                                    <path d="M1,9.99356318 C1,10.2732605 1.21930742,10.5 1.50643682,10.5 L10.9935632,10.5 C11.2732605,10.5 11.5,10.2806926 11.5,9.99356318 L11.5,0.506436825 C11.5,0.22673949 11.2806926,0 10.9935632,0 L1.50643682,0 C1.22673949,0 1,0.219307423 1,0.506436825 L1,9.99356318 Z" id="Path" fill="#C9D3E0"></path>
                                    <path d="M9.77431367,11 L2.22765031,11 L1.00900781,11 C0.72789056,11 0.5,10.7743011 0.5,10.4913554 L0.5,9.27358265 L0.5,1.73228844 L0.5,0.514527377 C0.5,0.233613454 0.725860107,0.00588772499 1.00900781,0.00588772499 L2.22765031,0.00588772499 L8.18016384,0.00588772499 C8.20373156,0.001962575 8.21944337,0 8.23513854,0 C8.25085035,0 8.26654552,0.001962575 8.28225733,0.00392514999 L9.77431367,0.00588772499 L10.9915708,0.00173466702 C11.2723685,0.000776636879 11.5,0.226466462 11.5,0.491770708 L11.5,1.73228844 L11.5,3.24094312 L11.5,9.27554523 L11.5,10.4919337 C11.5,10.772531 11.2743966,11 10.9915708,11 L9.77431367,11 Z M9.77431367,10.3839843 L10.8855083,10.3839843 L10.8855083,9.27554523 L10.8855083,7.07044253 L7.56960012,10.3839843 L9.77431367,10.3839843 Z M6.7430822,10.3839843 L6.77448918,10.3251237 C6.790201,10.2976476 6.80787679,10.2721508 6.82946389,10.2505791 L10.8855083,6.1974293 L10.8855083,3.99821433 L4.49517782,10.3839843 L6.7430822,10.3839843 Z M1.56755252,10.3839843 L2.22765031,10.3839843 L3.6215411,10.3839843 L10.8855083,3.1252011 L10.8855083,1.05916861 L10.21015,1.73425102 L2.43266602,9.50428856 L2.22765031,9.70910798 L1.56755252,10.3839843 Z M1.1832142,8.12117121 L1.1832142,9.90074466 L1.78788599,9.27554523 L9.77234969,1.29676311 L10.4767212,0.623866001 L9.77234969,0.623866001 L8.35685516,0.623866001 L1.1832142,7.79434996 L1.1832142,8.12117121 Z M1.16946637,4.70447522 L1.1203836,4.73782236 L1.1203836,6.98804765 L7.48518242,0.623866001 L5.26084575,0.623866001 L1.22247709,4.6613152 C1.20872926,4.67503659 1.19105347,4.68877462 1.16946637,4.70447522 Z M4.38524506,0.623866001 L2.22765031,0.623866001 L1.11841962,0.623866001 L1.11841962,1.73228844 L1.11841962,3.89226854 L4.38524506,0.623866001 Z" id="区域" fill="#0078FF"></path>
                                </g>
                            </g>
                        </g>
                    </g>
                    <g id="Group-4" transform="translate(3.466667, 3.733333)" stroke="#0078FF" fill="#C9D3E0">
                        <path d="M17.0940821,18.5567063 C16.468605,19.8413252 15.350326,21.3735874 13.5781159,21.3735874 L8.06254798,21.3735874 C7.61197588,21.286834 7.19298595,21.0803844 6.8494924,20.7758591 C5.58376982,19.6714319 4.5856233,18.2931939 3.9305793,16.7455143 C1.69402125,12.1297571 1.00219156,10.6733778 0.992716913,10.6619954 C0.720869745,10.0844122 0.900346626,9.39481144 1.41919633,9.0234671 C1.64574567,8.88305365 1.92063074,8.84381738 2.17734855,8.91533398 C2.45963287,8.99754044 2.69595763,9.19194517 2.83124957,9.45325933 C2.83118941,9.45889032 4.56553103,12.5443728 4.56553103,12.5443728 C4.70193587,13.0714276 5.19894877,13.4225365 5.74068802,13.3745376 C6.24513025,13.1480332 6.51905281,12.5959551 6.39458904,12.0567048 L6.39458904,3.15723824 C6.37780538,2.75144548 6.58447299,2.36904994 6.93298961,2.16112481 C7.28150622,1.95319968 7.71580598,1.95319968 8.06432259,2.16112481 C8.4128392,2.36904994 8.6195369,2.75144548 8.60272316,3.15723824 L8.60272316,9.7478335 C8.60272316,9.94615282 8.70838803,10.1293558 8.87992425,10.2285154 C9.05146048,10.3276751 9.26279022,10.3276751 9.43432644,10.2285154 C9.60586267,10.1293558 9.71152754,9.94615282 9.71152754,9.7478335 L9.71152754,2.01872395 C9.6947138,1.61290107 9.90141149,1.23050553 10.2499281,1.02261051 C10.5984447,0.814685384 11.0327445,0.814685384 11.3812611,1.02261051 C11.7297777,1.23050553 11.9364453,1.61290107 11.9196617,2.01872395 L11.9196617,9.7478335 C11.9196617,10.0543763 12.1678673,10.3028626 12.4740638,10.3028626 C12.7802604,10.3028626 13.028466,10.0543763 13.028466,9.7478335 L13.028466,3.15723824 C13.0116523,2.75144548 13.21835,2.36904994 13.5668666,2.16112481 C13.9153832,1.95319968 14.349683,1.95319968 14.6981996,2.16112481 C15.0467162,2.36904994 15.2533838,2.75144548 15.2366002,3.15723824 L15.2366002,10.0765851 C15.2366002,10.3830977 15.4848058,10.6316142 15.7910023,10.6316142 C16.0971989,10.6316142 16.3454045,10.3830977 16.3454045,10.0765851 L16.3454045,6.57281124 C16.3285908,6.16698836 16.5352885,5.78459282 16.8838051,5.57666769 C17.2323217,5.36877267 17.6666215,5.36877267 18.0151381,5.57666769 C18.3636547,5.78459282 18.5703223,6.16698836 18.5535387,6.57281124 L18.5535387,10.5576263 C18.6562258,13.2986848 18.1580699,16.0289932 17.0940821,18.5567063 Z" id="Path"></path>
                    </g>
                </g>
                <g id="Group-31" transform="translate(325.000000, 2.000000)">
                    <rect id="Rectangle-6" x="0" y="0" width="26" height="26"></rect>
                    <g id="Group-10" transform="translate(2.000000, 3.000000)">
                        <rect id="Rectangle-18" fill="#C9D3E0" x="1.03472527" y="0.882852292" width="19.1907692" height="18.5398981"></rect>
                        <path d="M3.77626374,1.32427844 L5.60395604,1.32427844 C5.85630769,1.32427844 6.06087912,1.12664522 6.06087912,0.882852292 C6.06087912,0.639059363 5.85630769,0.441426146 5.60395604,0.441426146 L3.77626374,0.441426146 C3.52391209,0.441426146 3.31934066,0.639059363 3.31934066,0.882852292 C3.31934066,1.12664522 3.52391209,1.32427844 3.77626374,1.32427844 Z M7.88857143,1.32427844 L9.71626374,1.32427844 C9.96861538,1.32427844 10.1731868,1.12664522 10.1731868,0.882852292 C10.1731868,0.639059363 9.96861538,0.441426146 9.71626374,0.441426146 L7.88857143,0.441426146 C7.63621978,0.441426146 7.43164835,0.639059363 7.43164835,0.882852292 C7.43164835,1.12664522 7.63621978,1.32427844 7.88857143,1.32427844 Z M11.543956,1.32427844 L13.3716484,1.32427844 C13.624,1.32427844 13.8285714,1.12664522 13.8285714,0.882852292 C13.8285714,0.639059363 13.624,0.441426146 13.3716484,0.441426146 L11.543956,0.441426146 C11.2916044,0.441426146 11.087033,0.639059363 11.087033,0.882852292 C11.087033,1.12664522 11.2916044,1.32427844 11.543956,1.32427844 Z M15.1993407,1.32427844 L17.027033,1.32427844 C17.2793846,1.32427844 17.483956,1.12664522 17.483956,0.882852292 C17.483956,0.639059363 17.2793846,0.441426146 17.027033,0.441426146 L15.1993407,0.441426146 C14.946989,0.441426146 14.7424176,0.639059363 14.7424176,0.882852292 C14.7424176,1.12664522 14.946989,1.32427844 15.1993407,1.32427844 Z M19.7685714,1.32427844 L19.7685714,1.76570458 C19.7685714,2.00949751 19.9731429,2.20713073 20.2254945,2.20713073 C20.4778462,2.20713073 20.6824176,2.00949751 20.6824176,1.76570458 L20.6824176,0.882852292 C20.6824176,0.639059363 20.4778462,0.441426146 20.2254945,0.441426146 L19.3116484,0.441426146 C19.0592967,0.441426146 18.8547253,0.639059363 18.8547253,0.882852292 C18.8547253,1.12664522 19.0592967,1.32427844 19.3116484,1.32427844 L19.7685714,1.32427844 Z M1.49164835,1.32427844 L1.49164835,1.76570458 C1.49164835,2.00949751 1.28707692,2.20713073 1.03472527,2.20713073 C0.782373627,2.20713073 0.577802198,2.00949751 0.577802198,1.76570458 L0.577802198,0.882852292 C0.577802198,0.639059363 0.782373627,0.441426146 1.03472527,0.441426146 L1.94857143,0.441426146 C2.20092308,0.441426146 2.40549451,0.639059363 2.40549451,0.882852292 C2.40549451,1.12664522 2.20092308,1.32427844 1.94857143,1.32427844 L1.49164835,1.32427844 Z M1.49164835,18.9813243 L1.49164835,18.5398981 C1.49164835,18.2961052 1.28707692,18.098472 1.03472527,18.098472 C0.782373627,18.098472 0.577802198,18.2961052 0.577802198,18.5398981 L0.577802198,19.4227504 C0.577802198,19.6665434 0.782373627,19.8641766 1.03472527,19.8641766 L1.94857143,19.8641766 C2.20092308,19.8641766 2.40549451,19.6665434 2.40549451,19.4227504 C2.40549451,19.1789575 2.20092308,18.9813243 1.94857143,18.9813243 L1.49164835,18.9813243 Z M19.7685714,3.53140917 L19.7685714,5.29711375 C19.7685714,5.54090668 19.9731429,5.7385399 20.2254945,5.7385399 C20.4778462,5.7385399 20.6824176,5.54090668 20.6824176,5.29711375 L20.6824176,3.53140917 C20.6824176,3.28761624 20.4778462,3.08998302 20.2254945,3.08998302 C19.9731429,3.08998302 19.7685714,3.28761624 19.7685714,3.53140917 Z M19.7685714,7.06281834 L19.7685714,8.82852292 C19.7685714,9.07231585 19.9731429,9.26994907 20.2254945,9.26994907 C20.4778462,9.26994907 20.6824176,9.07231585 20.6824176,8.82852292 L20.6824176,7.06281834 C20.6824176,6.81902541 20.4778462,6.62139219 20.2254945,6.62139219 C19.9731429,6.62139219 19.7685714,6.81902541 19.7685714,7.06281834 Z M19.7685714,10.5942275 L19.7685714,12.3599321 C19.7685714,12.603725 19.9731429,12.8013582 20.2254945,12.8013582 C20.4778462,12.8013582 20.6824176,12.603725 20.6824176,12.3599321 L20.6824176,10.5942275 C20.6824176,10.3504346 20.4778462,10.1528014 20.2254945,10.1528014 C19.9731429,10.1528014 19.7685714,10.3504346 19.7685714,10.5942275 Z M19.7685714,14.1256367 L19.7685714,15.8913413 C19.7685714,16.1351342 19.9731429,16.3327674 20.2254945,16.3327674 C20.4778462,16.3327674 20.6824176,16.1351342 20.6824176,15.8913413 L20.6824176,14.1256367 C20.6824176,13.8818437 20.4778462,13.6842105 20.2254945,13.6842105 C19.9731429,13.6842105 19.7685714,13.8818437 19.7685714,14.1256367 Z M19.7685714,18.9813243 L19.3116484,18.9813243 C19.0592967,18.9813243 18.8547253,19.1789575 18.8547253,19.4227504 C18.8547253,19.6665434 19.0592967,19.8641766 19.3116484,19.8641766 L20.2254945,19.8641766 C20.4778462,19.8641766 20.6824176,19.6665434 20.6824176,19.4227504 L20.6824176,17.6570458 C20.6824176,17.4132529 20.4778462,17.2156197 20.2254945,17.2156197 C19.9731429,17.2156197 19.7685714,17.4132529 19.7685714,17.6570458 L19.7685714,18.9813243 Z M16.5701099,18.9813243 L14.7424176,18.9813243 C14.4900659,18.9813243 14.2854945,19.1789575 14.2854945,19.4227504 C14.2854945,19.6665434 14.4900659,19.8641766 14.7424176,19.8641766 L16.5701099,19.8641766 C16.8224615,19.8641766 17.027033,19.6665434 17.027033,19.4227504 C17.027033,19.1789575 16.8224615,18.9813243 16.5701099,18.9813243 Z M12.9147253,18.9813243 L11.087033,18.9813243 C10.8346813,18.9813243 10.6301099,19.1789575 10.6301099,19.4227504 C10.6301099,19.6665434 10.8346813,19.8641766 11.087033,19.8641766 L12.9147253,19.8641766 C13.1670769,19.8641766 13.3716484,19.6665434 13.3716484,19.4227504 C13.3716484,19.1789575 13.1670769,18.9813243 12.9147253,18.9813243 Z M9.25934066,18.9813243 L7.43164835,18.9813243 C7.1792967,18.9813243 6.97472527,19.1789575 6.97472527,19.4227504 C6.97472527,19.6665434 7.1792967,19.8641766 7.43164835,19.8641766 L9.25934066,19.8641766 C9.51169231,19.8641766 9.71626374,19.6665434 9.71626374,19.4227504 C9.71626374,19.1789575 9.51169231,18.9813243 9.25934066,18.9813243 Z M5.60395604,18.9813243 L3.77626374,18.9813243 C3.52391209,18.9813243 3.31934066,19.1789575 3.31934066,19.4227504 C3.31934066,19.6665434 3.52391209,19.8641766 3.77626374,19.8641766 L5.60395604,19.8641766 C5.85630769,19.8641766 6.06087912,19.6665434 6.06087912,19.4227504 C6.06087912,19.1789575 5.85630769,18.9813243 5.60395604,18.9813243 Z M1.49164835,16.3327674 L1.49164835,14.5670628 C1.49164835,14.3232699 1.28707692,14.1256367 1.03472527,14.1256367 C0.782373627,14.1256367 0.577802198,14.3232699 0.577802198,14.5670628 L0.577802198,16.3327674 C0.577802198,16.5765603 0.782373627,16.7741935 1.03472527,16.7741935 C1.28707692,16.7741935 1.49164835,16.5765603 1.49164835,16.3327674 Z M1.49164835,12.3599321 L1.49164835,10.5942275 C1.49164835,10.3504346 1.28707692,10.1528014 1.03472527,10.1528014 C0.782373627,10.1528014 0.577802198,10.3504346 0.577802198,10.5942275 L0.577802198,12.3599321 C0.577802198,12.603725 0.782373627,12.8013582 1.03472527,12.8013582 C1.28707692,12.8013582 1.49164835,12.603725 1.49164835,12.3599321 Z M1.49164835,8.82852292 L1.49164835,7.06281834 C1.49164835,6.81902541 1.28707692,6.62139219 1.03472527,6.62139219 C0.782373627,6.62139219 0.577802198,6.81902541 0.577802198,7.06281834 L0.577802198,8.82852292 C0.577802198,9.07231585 0.782373627,9.26994907 1.03472527,9.26994907 C1.28707692,9.26994907 1.49164835,9.07231585 1.49164835,8.82852292 Z M1.49164835,5.29711375 L1.49164835,3.53140917 C1.49164835,3.28761624 1.28707692,3.08998302 1.03472527,3.08998302 C0.782373627,3.08998302 0.577802198,3.28761624 0.577802198,3.53140917 L0.577802198,5.29711375 C0.577802198,5.54090668 0.782373627,5.7385399 1.03472527,5.7385399 C1.28707692,5.7385399 1.49164835,5.54090668 1.49164835,5.29711375 Z" id="Rectangle-24" fill="#0078FF" fill-rule="nonzero"></path>
                        <g id="Combined-Shape">
                            <use fill="#FFFFFF" fill-rule="evenodd" xlink:href="#path-1"></use>
                            <path stroke="#0078FF" stroke-width="1" d="M18.0219748,15.4664657 L19.6204399,18.1411884 C19.8548326,18.5333992 19.7188121,19.0275514 19.3051061,19.2583037 C18.8837044,19.4933485 18.3442791,19.3535459 18.1045913,18.9524746 L16.5061261,16.277752 L16.2571815,15.8611913 L15.8333698,16.0975804 L13.4613122,17.4206404 C12.924373,17.7201284 12.6841901,17.5785476 12.7153491,17.0087042 L13.0978385,10.0136567 C13.1310597,9.40609957 13.5201723,9.18942242 14.099992,9.47454155 L20.5617968,12.6520543 C21.0985937,12.9160176 21.1046913,13.1574009 20.5796693,13.4502419 L18.2076117,14.7733019 L17.7576981,15.0242498 L18.0219748,15.4664657 Z"></path>
                        </g>
                    </g>
                </g>
                <g id="Group-41" transform="translate(296.000000, 3.000000)">
                    <rect id="Rectangle-6" x="0" y="0" width="26" height="26"></rect>
                    <g id="Group-34" transform="translate(3.000000, 5.000000)">
                        <path d="M19.2722599,15.9894743 L19.1634159,15.9894743 L19.112119,15.9639748 C18.8986823,15.8931863 18.777929,15.6931648 18.7202411,15.5975766 C18.6465335,15.4755371 18.5658718,15.3177536 18.4637567,15.1179839 C18.1481766,14.5006211 17.6712169,13.5676631 16.9287915,12.7912292 C15.490395,11.2869251 13.2750843,10.4172261 10.5016736,10.2629134 L10.5016736,13.441705 C10.5016736,13.784871 10.3106757,14.0948679 10.0032322,14.2506642 C9.69590131,14.4064044 9.33153007,14.3781898 9.05221257,14.1770486 L0.377322261,7.92479438 C0.141193257,7.75455496 0.000169030653,7.47996621 1.05647237e-07,7.19026248 C-0.000140665191,6.90036282 0.14040494,6.62563412 0.375942707,6.45525474 L9.05055147,0.174645907 C9.3300379,-0.0275309052 9.69480329,-0.0562773522 10.0025847,0.0994069109 C10.3104223,0.254979211 10.5017862,0.565144137 10.5017862,0.908785938 L10.5017862,4.35793972 C11.1115492,4.4037325 11.9192078,4.51060099 12.8230973,4.74905374 C14.6756697,5.23791129 16.2391551,6.10626671 17.4700835,7.33007602 C18.7009555,8.55382934 19.2930095,10.6014889 19.5728901,12.1037776 C19.7102261,12.8409686 19.8050494,13.6327135 19.8399042,14.3330968 C19.8626528,14.7907447 19.8701418,15.3901655 19.7766137,15.6465883 C19.7054399,15.8417114 19.5477203,15.9684813 19.3546953,15.9856956 C19.3273013,15.9881308 19.2997947,15.9894184 19.2722599,15.9894743 Z" id="02撤销" fill="#0078FF"></path>
                        <path d="M9.57979352,9.31514834 L10.0527835,9.32743626 C13.2970727,9.41166027 15.9058098,10.3910548 17.5969743,12.159703 C18.1536667,12.7418536 18.5766267,13.4003348 18.8913903,13.9596449 C18.851524,13.456848 18.777563,12.8493659 18.6504751,12.186854 C18.3923577,10.8412852 17.8649175,9.01889479 16.8181174,7.97820063 C15.7036628,6.87018885 14.279991,6.08183084 12.5865742,5.63498733 C11.5238388,5.3546325 10.6063508,5.27032451 10.0237847,5.24896761 L9.57982167,5.23267703 L9.57982167,0.92530045 L0.927905165,7.18950673 L9.57979352,13.4251625 L9.57979352,9.31514834 L9.57979352,9.31514834 Z" id="Path" fill="#C9D3E0"></path>
                    </g>
                </g>
                <g id="线路" transform="translate(215.000000, 3.000000)">
                    <rect id="ab_share" x="0" y="0" width="25.2" height="25.1612903"></rect>
                    <g id="Group-7" transform="translate(3.360000, 3.354839)">
                        <g id="Group-6" stroke="#0078FF" fill="#C9D3E0">
                            <path d="M0.0136614226,2.25624133 C0.0136614226,3.49776326 1.02164268,4.50422306 2.26510159,4.50422306 C3.50853356,4.50422306 4.51654176,3.49776326 4.51654176,2.25624133 C4.51654176,1.0147194 3.50853356,0.00825959419 2.26510159,0.00825959419 C1.02164268,0.00825959419 0.0136614226,1.0147194 0.0136614226,2.25624133" id="Fill-1"></path>
                            <path d="M14.8088474,2.25624133 C14.8088474,3.49776326 15.8168556,4.50422306 17.0602875,4.50422306 C18.3037195,4.50422306 19.3117277,3.49776326 19.3117277,2.25624133 C19.3117277,1.0147194 18.3037195,0.00825959419 17.0602875,0.00825959419 C15.8168556,0.00825959419 14.8088474,1.0147194 14.8088474,2.25624133" id="Fill-2"></path>
                            <path d="M0.0136614226,17.0287004 C0.0136614226,18.2702492 1.02164268,19.2766821 2.26510159,19.2766821 C3.50853356,19.2766821 4.51654176,18.2702492 4.51654176,17.0287004 C4.51654176,15.7871785 3.50853356,14.7807187 2.26510159,14.7807187 C1.02164268,14.7807187 0.0136614226,15.7871785 0.0136614226,17.0287004 L0.0136614226,17.0287004 Z" id="Fill-3"></path>
                            <path d="M14.8088474,17.0287004 C14.8088474,18.2702492 15.8168556,19.2766821 17.0602875,19.2766821 C18.3037195,19.2766821 19.3117277,18.2702492 19.3117277,17.0287004 C19.3117277,15.7871785 18.3037195,14.7807187 17.0602875,14.7807187 C15.8168556,14.7807187 14.8088474,15.7871785 14.8088474,17.0287004" id="Fill-4"></path>
                        </g>
                        <path d="M6.35218427,2.57737005 C6.68143264,2.57737005 6.94835582,2.36170585 6.94835582,2.09565007 C6.94835582,1.82962118 6.68143264,1.61395699 6.35218427,1.61395699 L5.75598577,1.61395699 C5.42673741,1.61395699 5.15981423,1.82962118 5.15981423,2.09565007 C5.15981423,2.36170585 5.42673741,2.57737005 5.75598577,2.57737005 L6.35218427,2.57737005 Z M8.73692435,2.57737005 C9.06617272,2.57737005 9.3330959,2.36170585 9.3330959,2.09565007 C9.3330959,1.82962118 9.06617272,1.61395699 8.73692435,1.61395699 L8.14072586,1.61395699 C7.81145054,1.61395699 7.54455431,1.82962118 7.54455431,2.09565007 C7.54455431,2.36170585 7.81145054,2.57737005 8.14072586,2.57737005 L8.73692435,2.57737005 Z M11.1216375,2.57737005 C11.4509128,2.57737005 11.717836,2.36170585 11.717836,2.09565007 C11.717836,1.82962118 11.4509128,1.61395699 11.1216375,1.61395699 L10.5254659,1.61395699 C10.1961906,1.61395699 9.92926745,1.82962118 9.92926745,2.09565007 C9.92926745,2.36170585 10.1961906,2.57737005 10.5254659,2.57737005 L11.1216375,2.57737005 Z M13.5063776,2.57737005 C13.8356529,2.57737005 14.1025761,2.36170585 14.1025761,2.09565007 C14.1025761,1.82962118 13.8356529,1.61395699 13.5063776,1.61395699 L12.910206,1.61395699 C12.5809307,1.61395699 12.3140075,1.82962118 12.3140075,2.09565007 C12.3140075,2.36170585 12.5809307,2.57737005 12.910206,2.57737005 L13.5063776,2.57737005 L13.5063776,2.57737005 Z" id="Fill-5" fill="#0078FF"></path>
                        <path d="M6.35266929,17.6710655 C6.6819446,17.6708502 6.94862527,17.4561815 6.94835582,17.1915785 C6.94808636,16.9269756 6.68094762,16.7126835 6.3516723,16.7128987 L5.75550075,16.7133023 C5.42622544,16.7135175 5.15951782,16.9281863 5.15981423,17.1927892 C5.16008368,17.4573922 5.42722243,17.6717112 5.75649774,17.671469 L6.35266929,17.6710655 Z M8.73740937,17.6694512 C9.06668469,17.669236 9.33336536,17.4545672 9.3330959,17.1899643 C9.33282644,16.9253882 9.06566075,16.7110692 8.73641238,16.7112845 L8.14021389,16.711688 C7.81096552,16.7119033 7.54425791,16.926572 7.54455431,17.191175 C7.54482377,17.4557779 7.81196251,17.6700969 8.14123782,17.6698548 L8.73740937,17.6694512 Z M11.1221495,17.667837 C11.4514248,17.6676217 11.7181054,17.452953 11.717836,17.18835 C11.7175665,16.923774 11.4504008,16.709455 11.1211525,16.7096702 L10.524954,16.7100738 C10.1957056,16.710289 9.92899799,16.9249847 9.92926745,17.1895607 C9.92956385,17.4541637 10.1967026,17.6684827 10.5259779,17.6682405 L11.1221495,17.667837 Z M13.5068895,17.6662227 C13.8361379,17.6660075 14.1028455,17.4513387 14.1025761,17.1867358 C14.1022797,16.9221597 13.8351409,16.7078407 13.5058926,16.708056 L12.9096941,16.7084595 C12.5804457,16.7086748 12.3137381,16.9233704 12.3140075,17.1879465 C12.3143039,17.4525494 12.5814427,17.6668684 12.910691,17.6666263 L13.5068895,17.6662227 L13.5068895,17.6662227 Z" id="Fill-6" fill="#0078FF"></path>
                        <path d="M5.78452117,14.408176 C5.97120033,14.218313 5.96837105,13.9133268 5.7782159,13.7269613 C5.5880877,13.5405689 5.2826323,13.5433938 5.09598008,13.7332568 L4.64531481,14.1915702 C4.45866259,14.3814332 4.46149188,14.6864194 4.65162008,14.8727849 C4.84177523,15.0591773 5.14723063,15.0563524 5.33388285,14.8665162 L5.78452117,14.408176 Z M7.58710142,12.574842 C7.77375364,12.384979 7.7709513,12.0799928 7.58079615,11.8936273 C7.39066795,11.7072349 7.08521255,11.7100598 6.89853339,11.899896 L6.44789506,12.3582362 C6.26124285,12.5480992 6.26404519,12.8530854 6.45420033,13.0394509 C6.64432854,13.2258433 6.94978393,13.2230184 7.1364631,13.0331554 L7.58710142,12.574842 Z M9.38965473,10.7415081 C9.57633389,10.551645 9.5735046,10.2466588 9.3833764,10.0602933 C9.19322126,9.87390093 8.88776586,9.87672587 8.70111364,10.066562 L8.25047531,10.5249022 C8.06379615,10.7147653 8.06662544,11.0197515 8.25675364,11.206117 C8.44690879,11.3924825 8.75236418,11.3896844 8.9390164,11.1998214 L9.38965473,10.7415081 Z M11.192235,8.90814721 C11.3788872,8.71831106 11.3760849,8.41332488 11.1859297,8.22693247 C10.9958015,8.04056697 10.6903461,8.04339191 10.5036669,8.23322806 L10.0530286,8.69156827 C9.8663764,8.88140442 9.86917874,9.18641751 10.0593339,9.37278301 C10.2494621,9.55914851 10.5549444,9.55635047 10.7415967,9.36648743 L11.192235,8.90814721 Z M12.9948152,7.07481325 C13.1814674,6.8849771 13.1786382,6.57999091 12.98851,6.39359851 C12.7983548,6.207233 12.4928994,6.21005795 12.3062472,6.39989409 L11.8556089,6.85823431 C11.6689297,7.04807045 11.671759,7.35305664 11.8619141,7.53944905 C12.0520423,7.72581455 12.3574977,7.72298961 12.54415,7.53315346 L12.9948152,7.07481325 Z M14.7973685,5.24147928 C14.9840477,5.05164314 14.9812184,4.74665695 14.7910902,4.56026454 C14.6009351,4.37389904 14.2954797,4.37669708 14.1088274,4.56656013 L13.6581622,5.02490035 C13.47151,5.21473649 13.4743392,5.51972268 13.6644674,5.70611509 C13.8546226,5.89248059 14.160078,5.88965564 14.3467302,5.6998195 L14.7973685,5.24147928 L14.7973685,5.24147928 Z" id="Fill-7" fill="#0078FF"></path>
                    </g>
                </g>
                <g id="Group-19" transform="translate(269.000000, 3.000000)">
                    <rect id="Rectangle-9" x="0" y="0" width="25.2" height="25.1612903"></rect>
                    <g id="Group-11" transform="translate(1.680000, 1.677419)">
                        <path d="M10.999997,0.760586819 L10.942703,0.72688172 C11.0644527,0.895335805 11.0644527,0.811073058 10.999997,0.760586819 L10.999997,0.760586819 Z M10.999997,0.760586819 L10.942703,0.72688172 C11.0644527,0.895335805 11.0644527,0.811073058 10.999997,0.760586819 L10.999997,0.760586819 Z M16.4880844,19.3991458 L5.03380179,19.3991458 L2.41158401,16.7818104 L2.41158401,5.34882963 L5.03380179,2.73151944 L14.0684929,2.73151944 C14.1042638,2.72556871 14.1281111,2.72259335 14.1519331,2.72259335 C14.1757804,2.72259335 14.1996025,2.72556871 14.2234498,2.72854407 L16.4880844,2.73151944 L19.1073212,5.34882963 L19.1073212,7.6360259 L19.1073212,16.7847858 L16.4880844,19.3991458 Z M13.1417827,18.4652351 L16.4880844,18.4652351 L16.4880844,17.2517411 C16.4880844,16.9929855 16.6966725,16.7847858 16.9559108,16.7847858 L18.1746493,16.7847858 L18.1746493,13.4417393 L13.1417827,18.4652351 L13.1417827,18.4652351 Z M8.47544211,18.4652351 L11.8872986,18.4652351 L11.9349679,18.3759994 C11.9588152,18.3343443 11.9856434,18.2956898 12.0184082,18.2629861 L18.1746493,12.1182074 L18.1746493,8.78408707 L8.47544211,18.4652351 L8.47544211,18.4652351 Z M5.03380179,17.4420887 L5.03380179,18.4652351 L7.14944128,18.4652351 L18.1746493,7.46055517 L18.1746493,5.35180499 L17.1495943,5.35180499 L5.03380179,17.4420887 L5.03380179,17.4420887 Z M3.34723687,14.7087646 L3.34723687,16.7847858 L4.36633001,16.7847858 L16.4851035,4.68855135 L16.4851035,3.66840554 L14.3366739,3.66840554 L3.44856263,14.5392193 L3.35021778,14.5392193 L3.34723687,14.7087646 L3.34723687,14.7087646 Z M3.50815562,9.78938129 C3.48728923,9.81018362 3.46046102,9.83101115 3.42769624,9.85481405 L3.35319869,9.90536999 L3.35319869,13.3168245 L13.013654,3.66840554 L9.63756853,3.66840554 L3.50815562,9.78938129 L3.50815562,9.78938129 Z M3.35021778,8.62346794 L8.30858679,3.66840554 L5.03380179,3.66840554 L5.03380179,4.88187426 C5.03380179,5.14065513 4.8252137,5.34882963 4.56597536,5.34882963 L3.35021778,5.34882963 L3.35021778,8.62346794 L3.35021778,8.62346794 Z" id="区域" fill="#0078FF"></path>
                        <g id="Oval-2">
                            <use fill="#C9D3E0" fill-rule="evenodd" xlink:href="#path-2"></use>
                            <ellipse stroke="#0078FF" stroke-width="1" cx="2.912" cy="18.8989247" rx="2.412" ry="2.40752688"></ellipse>
                        </g>
                        <g id="Oval-2">
                            <use fill="#C9D3E0" fill-rule="evenodd" xlink:href="#path-3"></use>
                            <ellipse stroke="#0078FF" stroke-width="1" cx="18.928" cy="18.8989247" rx="2.412" ry="2.40752688"></ellipse>
                        </g>
                        <g id="Oval-2">
                            <use fill="#C9D3E0" fill-rule="evenodd" xlink:href="#path-4"></use>
                            <ellipse stroke="#0078FF" stroke-width="1" cx="18.928" cy="2.90752688" rx="2.412" ry="2.40752688"></ellipse>
                        </g>
                        <g id="Oval-2">
                            <use fill="#C9D3E0" fill-rule="evenodd" xlink:href="#path-5"></use>
                            <ellipse stroke="#0078FF" stroke-width="1" cx="2.912" cy="2.90752688" rx="2.412" ry="2.40752688"></ellipse>
                        </g>
                    </g>
                </g>
                <g id="Group-17" transform="translate(242.000000, 3.000000)">
                    <rect id="Rectangle-14" x="0" y="0" width="25.2" height="25.1612903"></rect>
                    <g id="Group-15" transform="translate(4.200000, 4.193548)">
                        <ellipse id="Oval-4" stroke="#0078FF" fill="#C9D3E0" cx="8.98711579" cy="8.93225806" rx="8.98711579" ry="8.68064516"></ellipse>
                        <ellipse id="Oval-6" fill="#0078FF" cx="8.98711579" cy="8.93225806" rx="1.63402105" ry="1.57829912"></ellipse>
                        <ellipse id="Oval-6" fill="#0078FF" cx="17.5710316" cy="9.91583578" rx="2.45103158" ry="2.36744868"></ellipse>
                    </g>
                </g>
                <g id="移动" transform="translate(108.000000, 3.000000)">
                    <g id="Group-43">
                        <rect id="Rectangle-8" x="0" y="0" width="25.2" height="25.1612903"></rect>
                        <ellipse id="Oval-9" stroke="#0078FF" fill="#C9D3E0" stroke-linecap="round" stroke-linejoin="round" stroke-dasharray="2,2,2,2" cx="12.6" cy="12.5806452" rx="9.24" ry="9.22580645"></ellipse>
                    </g>
                </g>
                <g id="Group-20" transform="translate(135.000000, 3.000000)">
                    <g id="标尺-(1)">
                        <rect id="Rectangle-23" x="0" y="0" width="25.2" height="25.1612903"></rect>
                        <path d="M10.757587,10.4032404 L10.757587,11.2411851 L10.757587,19.8107309 C10.757587,20.8988325 9.87069023,21.7850535 8.78028428,21.7850535 L5.36139833,21.7850535 C4.2716227,21.7850535 3.38403833,20.8988325 3.38403833,19.8107309 L3.38403833,5.34907187 C3.38403833,4.26131353 4.2716227,3.37575054 5.36139833,3.37575054 L14.0403799,3.37575054 C14.0571695,3.36939975 14.1529217,3.36736864 14.2196216,3.37781025 L19.8442746,3.37575054 C20.9340502,3.37575054 21.8216346,4.2620001 21.8216346,5.34972983 L21.8216346,9.103217 C21.8216346,9.79024636 21.1382471,10.4486686 20.4083587,10.4032404 C20.3730908,10.4104001 13.9395124,10.405848 11.597587,10.4039527 C11.0758862,10.4035304 10.757587,10.4032404 10.757587,10.4032404 Z" id="Fill-2" fill="#0078FF" fill-rule="nonzero"></path>
                        <path d="M5.36139833,4.21446022 C4.73536071,4.21446022 4.22403833,4.72470102 4.22403833,5.34907187 L4.22403833,19.8107309 C4.22403833,20.4356259 4.73554189,20.9463438 5.36139833,20.9463438 L8.78028428,20.9463438 C9.40649371,20.9463438 9.91758698,20.4359029 9.91758698,19.8107309 L9.91758698,9.56376504 L10.7583535,9.56453108 C10.8917593,9.56465263 10.8917593,9.56465263 11.4701541,9.56513892 C12.226662,9.56574678 12.6272548,9.56605071 13.2506309,9.56647621 C14.0581194,9.56702739 14.8432666,9.56748594 15.5834263,9.56782086 C16.9335881,9.56843179 18.0599279,9.56859912 18.887964,9.56822105 C19.3579684,9.56800645 19.7255419,9.5676175 19.9812023,9.56704212 C20.1657225,9.5665677 20.1657225,9.5665677 20.2885273,9.56598438 C20.4083587,9.56822105 20.4606192,9.5661555 20.4606192,9.5661555 C20.6977249,9.58091293 20.9816346,9.31571934 20.9816346,9.103217 L20.9816346,5.34972983 C20.9816346,4.72520851 20.470161,4.21453256 19.8444076,4.21446022 L14.2199297,4.21651987 L5.36139833,4.21446022 Z" id="Path" fill="#C9D3E0"></path>
                        <path d="M8.4,4.19354839 L9.24,4.19354839 L9.24,7.96967199 C9.24,8.20020933 9.04517578,8.38709677 8.82,8.38709677 L8.82,8.38709677 C8.58804041,8.38709677 8.4,8.20690524 8.4,7.96967199 L8.4,4.19354839 Z" id="Rectangle-17" fill="#0078FF"></path>
                        <path d="M4.2,9.22580645 L7.98193302,9.22580645 C8.21282504,9.22580645 8.4,9.4203314 8.4,9.64516129 L8.4,9.64516129 C8.4,9.87676457 8.21953125,10.0645161 7.98193302,10.0645161 L4.2,10.0645161 L4.2,9.22580645 Z" id="Rectangle-19" fill="#0078FF"></path>
                        <path d="M4.2,12.5806452 L7.14799805,12.5806452 C7.37554044,12.5806452 7.56,12.7751701 7.56,13 L7.56,13 C7.56,13.2316033 7.37935181,13.4193548 7.14799805,13.4193548 L4.2,13.4193548 L4.2,12.5806452 Z" id="Rectangle-19" fill="#0078FF"></path>
                        <path d="M4.2,15.9354839 L7.98193302,15.9354839 C8.21282504,15.9354839 8.4,16.1300088 8.4,16.3548387 L8.4,16.3548387 C8.4,16.586442 8.21953125,16.7741935 7.98193302,16.7741935 L4.2,16.7741935 L4.2,15.9354839 Z" id="Rectangle-19" fill="#0078FF"></path>
                        <path d="M16.8,4.19354839 L17.64,4.19354839 L17.64,7.13701802 C17.64,7.36421089 17.4451758,7.5483871 17.22,7.5483871 L17.22,7.5483871 C16.9880404,7.5483871 16.8,7.3680164 16.8,7.13701802 L16.8,4.19354839 Z" id="Rectangle-17" fill="#0078FF"></path>
                        <path d="M12.6,4.19354839 L13.44,4.19354839 L13.44,7.13701802 C13.44,7.36421089 13.2451758,7.5483871 13.02,7.5483871 L13.02,7.5483871 C12.7880404,7.5483871 12.6,7.3680164 12.6,7.13701802 L12.6,4.19354839 Z" id="Rectangle-17" fill="#0078FF"></path>
                    </g>
                </g>
                <g id="Group-42" transform="translate(81.000000, 3.000000)">
                    <g id="Group-21"></g>
                    <path d="M20.861724,4.19354839 L23.52,4.19354839 L23.52,19.968674 C23.52,20.520444 23.0638406,20.9677419 22.524829,20.9677419 L2.67517104,20.9677419 C2.12555325,20.9677419 1.68,20.5198557 1.68,19.975463 L1.68,6.53124422 L14.3698883,11.3243423 L20.861724,4.19354839 Z" id="Combined-Shape" stroke="#0078FF" fill="#C9D3E0" stroke-linecap="round" stroke-linejoin="round" stroke-dasharray="2,2,2,2"></path>
                </g>
                <g id="Group-39" transform="translate(162.000000, 3.000000)">
                    <g id="Group-38">
                        <rect id="Rectangle-6" x="0" y="0" width="25.2" height="25.1612903"></rect>
                        <g id="Group" transform="translate(3.200000, 3.193548)" fill="#C9D3E0" stroke="#0078FF">
                            <g id="Group-16">
                                <path d="M9,18 C4.02945157,18 0,13.9705484 0,9 C0,4.02945157 4.02945157,0 9,0 C13.9705484,0 18,4.02945157 18,9 C18,13.9705484 13.9705484,18 9,18 Z M9.61458208,4.17307056 C9.28347169,3.79231244 8.74656305,3.79231244 8.41545266,4.17307056 L5.41757886,7.62023492 C5.22051983,7.84685155 5.14073692,8.15724401 5.17825523,8.45171504 C5.21813413,8.76494522 5.48596063,8.99909565 5.80172719,8.99909565 L7.71428213,8.99909565 L7.71428213,12.2142944 C7.71428213,12.5693371 8.0020983,12.8571533 8.35714106,12.8571533 L9.64285894,12.8571533 C9.9979017,12.8571533 10.2857179,12.5693371 10.2857179,12.2142944 L10.2857179,8.99909565 L12.2283075,8.99909565 C12.5440741,8.99909565 12.8118755,8.76494522 12.8517795,8.45174015 C12.8893229,8.15726912 12.8095149,7.84687666 12.6123805,7.62023492 L9.61458208,4.17307056 Z" id="Combined-Shape"></path>
                            </g>
                        </g>
                    </g>
                    <g id="Group-10" transform="translate(2.000000, 2.000000)">
                        <g id="Group"></g>
                    </g>
                </g>
                <g id="Group-49" transform="translate(54.000000, 3.000000)">
                    <rect id="Rectangle-3" x="0" y="0" width="25.2" height="25.1612903"></rect>
                    <path d="M21.8245712,20.8741987 L21.824031,20.8736593 L21.824031,20.8742233 L21.8245712,20.8742233 C22.003924,21.0834328 22.0938951,21.3149534 22.0938951,21.5687852 C22.0938951,21.8527737 21.9927759,22.0954254 21.7904883,22.2974022 C21.5993735,22.4947207 21.3350835,22.6043393 21.0602101,22.6003429 C20.9418775,22.6005146 20.8243307,22.5814888 20.7121125,22.5440013 C20.601343,22.5077396 20.4984066,22.4509566 20.4087057,22.3766189 L20.2963892,22.2867861 L14.7462749,16.7056257 C13.4136768,17.6473506 11.9228927,18.1176491 10.2751503,18.1176491 C10.1103098,18.1176491 9.94212971,18.1103919 9.77004533,18.0959019 C9.60051471,18.0812894 9.43176986,18.0587576 9.26435101,18.0284047 C8.12301507,17.8983628 7.02912021,17.4986507 6.07332504,16.8623919 C5.02510326,16.1901411 4.18641288,15.3013989 3.5572539,14.1951112 C3.25500124,13.6807054 3.0172311,13.1311411 2.84932114,12.5587999 C2.67821897,11.9821926 2.57267978,11.3882023 2.53474165,10.7880335 C2.49729464,10.1884531 2.53125478,9.58654355 2.63588543,8.99495595 C2.78545249,8.03861852 3.12146886,7.12084743 3.62485498,6.29364473 C4.12347734,5.46148945 4.77977006,4.73439252 5.55704733,4.15297977 C6.21636036,3.62967396 6.95393152,3.22633327 7.77027646,2.94236926 C8.57517858,2.66021956 9.42209503,2.51610451 10.2751503,2.51612903 C10.6349855,2.51612903 10.9791788,2.53844014 11.3094001,2.58365078 C12.1928059,2.70302746 13.0387401,2.97191309 13.8478166,3.39035669 C14.6427984,3.79825767 15.3582696,4.34485529 15.9604668,5.0043324 C16.6639304,5.73684775 17.1992386,6.60327877 17.5663176,7.60467974 C17.9334211,8.60610522 18.0948976,9.62204518 18.0496419,10.6530145 C17.9898495,12.3719015 17.3981375,13.9183799 16.2744815,15.2930384 L21.8463764,20.8742233 L21.8245712,20.8742233 L21.8245712,20.8741987 Z" id="搜索_搜索" fill="#0078FF"></path>
                    <path d="M16.8812705,10.6307034 C16.9303813,9.71214773 16.7770327,8.7940334 16.4320536,7.94108711 C16.2364206,7.41537857 15.971885,6.91786539 15.6453225,6.46156646 C15.315666,5.99850065 14.9301213,5.5840044 14.4887131,5.21744026 C14.0538857,4.8552893 13.5745148,4.55006845 13.0622151,4.30920655 C11.9681238,3.80279345 10.7548896,3.60890747 9.55714984,3.74907516 C9.48915588,3.74985973 9.42140747,3.75733763 9.35488684,3.77138627 L9.21966014,3.7937219 C8.26273541,3.94205399 7.35222043,4.30609281 6.55721415,4.85818239 C5.75818077,5.40017068 5.09353922,6.11701921 4.61384908,6.9541761 C4.06014891,7.86522934 3.75674214,8.8817087 3.70365332,10.0025109 C3.65112928,11.1233376 3.85675636,12.162128 4.32161503,13.1183674 C4.71000811,13.9839158 5.28981069,14.7503146 6.0174369,15.3599962 C6.7381876,15.976788 7.58559515,16.428306 8.49998989,16.6827752 C9.45880538,16.9516608 10.4249138,17.0041042 11.3982416,16.8395169 C11.9087733,16.7494879 12.4067818,16.5990963 12.8817327,16.3915294 C13.3552349,16.1853601 13.8036414,15.9259383 14.2182597,15.6182902 C14.6316011,15.3106421 15.0085759,14.9570723 15.3419157,14.5644214 C15.6788652,14.1683134 15.959902,13.7387388 16.184535,13.2756975 L16.184535,13.2762368 C16.6039416,12.454428 16.8415644,11.5522012 16.881295,10.6307034 L16.8812705,10.6307034 L16.8812705,10.6307034 Z" id="Path" fill="#C9D3E0"></path>
                </g>
                <g id="Group" transform="translate(27.000000, 2.000000)">
                    <rect id="Rectangle-6" x="0" y="0" width="26" height="26"></rect>
                    <path d="M13.4333333,22.5333333 C8.40755658,22.5333333 4.33333333,18.4591101 4.33333333,13.4333333 C4.33333333,8.40755658 8.40755658,4.33333333 13.4333333,4.33333333 C18.4591101,4.33333333 22.5333333,8.40755658 22.5333333,13.4333333 C22.5333333,18.4591101 18.4591101,22.5333333 13.4333333,22.5333333 Z" id="Combined-Shape" stroke="#0078FF" fill="#C9D3E0"></path>
                    <g id="key-(1)" transform="translate(8.000000, 8.000000)">
                        <mask id="mask-7" fill="white">
                            <use xlink:href="#path-6"></use>
                        </mask>
                        <g id="Clip-2"></g>
                        <path d="M9.61562317,10.9999866 L8.92880732,10.9999866 L8.92880732,9.62635488 L7.55510854,9.62635488 L7.55510854,8.2526561 L6.18147683,8.2526561 L6.18147683,7.56584024 L4.80777805,7.56584024 L4.80777805,6.58920122 C4.37500854,6.78009146 3.90717317,6.87880976 3.43414634,6.87902439 C1.53781341,6.87902439 0,5.34189512 0,3.44487805 C0,1.54786098 1.53781341,0.0107317073 3.43414634,0.0107317073 C5.33047927,0.0107317073 6.86829268,1.54786098 6.86829268,3.44487805 C6.86829268,3.93388171 6.76249146,4.39753171 6.57846951,4.81850976 L7.55510854,4.81850976 L7.55510854,6.19220854 L10.9892549,8.93953902 L10.9892549,10.9999866 L9.61562317,10.9999866 Z M2.74733049,1.38436341 C1.98902805,1.38436341 1.37363171,1.99975976 1.37363171,2.7580622 C1.37363171,3.51629756 1.98902805,4.1316939 2.74733049,4.1316939 C3.50556585,4.1316939 4.1209622,3.51629756 4.1209622,2.7580622 C4.1209622,1.99975976 3.50556585,1.38436341 2.74733049,1.38436341 Z" id="Fill-1" fill="#0078FF" mask="url(#mask-7)"></path>
                    </g>
                </g>
                <g id="Group" transform="translate(0.000000, 2.000000)">
                    <rect id="Rectangle-6" x="0" y="0" width="26" height="26"></rect>
                    <path d="M13.4333333,22.5333333 C8.40755658,22.5333333 4.33333333,18.4591101 4.33333333,13.4333333 C4.33333333,8.40755658 8.40755658,4.33333333 13.4333333,4.33333333 C18.4591101,4.33333333 22.5333333,8.40755658 22.5333333,13.4333333 C22.5333333,18.4591101 18.4591101,22.5333333 13.4333333,22.5333333 Z" id="Combined-Shape" stroke="#0078FF" fill="#C9D3E0"></path>
                    <path d="M18.2973042,10.2256625 L18.2973042,10.2278937 C18.4041492,10.2588195 18.5018762,10.1429776 18.5637544,10.0810482 C18.6165405,9.98710342 18.7761456,9.83112548 18.8852247,9.83112548 C18.9459079,9.85159564 18.8862638,10.0075736 18.9506878,10.0603705 C18.9586109,10.0637173 19.0080199,10.1246349 18.9988759,10.1302908 C18.9712879,10.2048032 18.9229959,10.6967097 18.9540389,10.7173874 C18.9493629,10.7678752 18.9529218,10.7987751 18.9162937,10.8354605 C18.8761067,10.8973899 18.7796006,10.8504564 18.7243986,10.8504564 C18.7048117,10.8836912 18.6428036,10.9078195 18.6314515,10.9433893 C18.5832374,11.0923623 18.8333738,11.3354097 18.7875237,11.4972511 L18.7852897,11.4972511 C18.7852897,11.5155938 18.7543246,11.6474435 18.7475445,11.6725836 C18.7416476,11.696686 18.7349455,11.7128234 18.7120334,11.7184793 C18.7120334,11.7288312 18.6178393,11.696686 18.6017074,11.6955704 C18.5649753,11.6507903 18.5844584,11.5521755 18.5638583,11.5545105 C18.5361664,11.5579611 18.5145532,11.6004062 18.5110982,11.6004062 C18.5052273,11.6452122 18.4661573,11.7828475 18.4201773,11.806872 C18.3938102,11.8401068 18.333127,11.8458665 18.2939531,11.8458665 L18.2939531,11.8480977 C18.2812502,11.8548952 18.2812502,11.8537795 18.2812502,11.8732379 C18.3226581,11.8984818 18.3467132,11.9466087 18.3444792,11.9787539 C18.3559352,12.0372067 18.2778211,12.088914 18.2594551,12.0762271 C18.174509,12.0762271 18.112501,12.0303314 18.0379198,12.0303314 L18.0379198,12.0325626 C18.0056559,12.0416691 17.9989537,12.1506358 17.9747168,12.1506358 C17.9541167,12.2342287 17.8817697,12.2847944 17.8357897,12.353625 L17.8312177,12.353625 C17.8299967,12.3547406 17.8299967,12.3569719 17.8289836,12.3592809 C17.7748987,12.3777274 17.7370496,12.4269959 17.6956416,12.4625657 C17.6956416,12.5061524 17.6622606,12.5600649 17.6577925,12.6094112 C17.5246584,12.7228143 17.3559092,12.6645431 17.2583121,12.8925688 C17.2559741,12.9420189 17.1950831,13.0382987 17.1950831,13.0394143 C17.14344,13.0416455 17.0907578,13.0462117 17.0389069,13.0474311 C17.0354519,12.9980848 17.0734049,12.9109115 17.12962,12.9109115 C17.12962,12.8868091 17.0321268,12.7619385 17.0768599,12.7619385 C17.0780809,12.7562567 17.0780809,12.750497 17.079094,12.7435958 L17.081328,12.7435958 C17.081328,12.6610925 17.1892901,12.6335395 17.1594681,12.5200326 C17.1433361,12.4534333 17.0708851,12.4305503 17.0157871,12.4534333 C17.0157871,12.4556645 16.5990316,12.9730484 16.5979146,12.9730484 C16.5783276,13.0027288 16.4198135,13.0327465 16.3819644,13.0429687 C16.3314384,13.0876709 16.2993563,13.1989466 16.3773924,13.2390826 C16.3888744,13.2849783 16.4130334,13.3056561 16.4130334,13.3525895 C16.4312955,13.361696 16.5576236,13.2953302 16.6218657,13.32156 C16.6392186,13.3629154 16.6541297,13.4052827 16.6541297,13.452294 L16.6564676,13.452294 C16.6668066,13.4752029 16.7343998,13.5463426 16.7596499,13.5496894 L16.7596499,13.5520244 C16.7632088,13.5520244 16.7586368,13.5496894 16.7619878,13.5496894 C16.8585978,13.5496894 16.8585978,13.3181353 17.043479,13.3181353 C17.1226321,13.2952264 17.1926412,13.3811544 17.2845752,13.3537051 C17.3396733,13.3375937 17.3754961,13.3559364 17.4153714,13.3765881 C17.4153714,13.3915062 17.4257364,13.4982156 17.3878873,13.4982156 C17.3786394,13.5132115 17.1799642,13.6002811 17.1766131,13.5991654 C17.1938621,13.6289497 17.004409,13.8262571 16.9780419,13.8077328 C16.971028,13.8295001 16.9079029,13.9248719 16.9079029,13.9258837 C16.8987848,13.9326812 16.880211,13.9602601 16.880211,13.9694704 L16.8779769,13.9694704 C16.8688329,13.9935987 16.8459208,14.1484351 16.8459208,14.1518857 C16.8504669,14.1564519 16.8481549,14.1575675 16.8504669,14.1622375 C16.8527009,14.1645725 16.854935,14.165766 16.8585978,14.1679972 C16.8585978,14.1816958 16.886004,14.1897905 16.886004,14.1966917 C17.1649493,14.2357121 17.1753922,14.668154 17.2753532,14.7196277 C17.2753532,14.7254134 17.2786004,14.7254134 17.2799253,14.7321848 C17.3498304,14.7953336 17.4359715,14.8310072 17.5164495,14.8916134 L17.5164495,14.8963872 C17.6128516,14.9455259 17.4199435,14.9514153 17.4153714,14.983327 C17.4739245,15.0176774 17.5406085,15.0520538 17.5737816,15.1507464 L17.5715476,15.1507464 C17.5715476,15.2633453 17.3314644,15.3617525 17.2774834,15.4237856 L17.2752493,15.4237856 L17.2752493,15.4317765 C17.2958494,15.4395858 17.3383744,15.4374584 17.3601695,15.4374584 C17.4198395,15.3227321 17.5954987,15.4099832 17.6770937,15.4419208 C17.6760806,15.4477842 17.6770937,15.444152 17.6748597,15.4477842 C17.6588316,15.5096098 17.5519606,15.5418328 17.5519606,15.5923207 C17.5727685,15.5923207 17.6312177,15.5258251 17.6496876,15.5589821 C17.6496876,15.579556 17.6715086,15.6313411 17.6519216,15.6518113 C17.6231906,15.6863693 17.5956026,15.6576747 17.5715476,15.6805837 L17.5692096,15.6805837 C17.5692096,15.8134451 17.7184757,15.9970798 17.5014346,15.9970798 C17.4371924,16.1118061 17.4210605,16.12771 17.4163846,16.2804449 C17.3578575,16.320581 17.3670794,16.4122945 17.3154364,16.4582162 C17.2867054,16.4569968 17.2362832,16.454558 17.2271392,16.4731083 C17.2271392,16.5074587 17.2879263,16.5315871 17.3154364,16.5372689 C17.3086303,16.5934126 17.2271392,16.5692843 17.2500772,16.6449902 C17.2545453,16.7105518 17.2706773,16.7483528 17.2545453,16.8102822 C17.1339842,16.8194146 17.2190342,16.9226735 17.1260871,16.9697107 C17.099798,17.0519805 16.977938,17.0497752 16.9698071,17.0775358 C16.944635,17.1062044 16.8205409,17.3551153 16.7712358,17.3551153 C16.7700149,17.3573465 16.7700149,17.3583584 16.7690017,17.3595777 C16.7104487,17.3791398 16.5830815,17.401945 16.5830815,17.4730846 C16.5772106,17.4914274 16.5876535,17.5016754 16.5876535,17.5223272 C16.4657935,17.5934928 16.3074872,17.7585772 16.1477782,17.7081153 C16.0823151,17.6875413 16.074392,17.8318443 16.012306,17.8318443 C15.977808,17.8651829 15.8895109,17.7701225 15.8895109,17.7412463 C15.8401018,17.7070775 15.8379717,17.7689031 15.8286198,17.784833 C15.8022528,17.8937736 15.6265936,18.0086037 15.5186315,18.0086037 C15.4463884,18.0313829 15.0915111,18.0682759 15.0788341,18.1370027 L15.0766001,18.1370027 C15.0766001,18.1677988 15.054779,18.237745 15.0156311,18.237745 C14.9823281,18.2790744 15.0030321,18.262963 15.013397,18.3043184 C15.034179,18.3043184 15.050233,18.3065496 15.0662611,18.3088846 C15.076704,18.3284467 15.0753791,18.3811399 15.0708331,18.403945 C15.021502,18.4318093 15.0030321,18.4292668 14.944479,18.4270356 L14.944479,18.4248303 C14.920346,18.4202641 14.8755869,18.3135287 14.853662,18.2859757 C14.7711578,18.2436084 14.853662,18.158796 14.858234,18.110747 C14.853662,18.1095276 14.8503109,18.1083082 14.8434269,18.1083082 L14.8434269,18.110747 C14.7926671,18.1242381 14.7538049,18.1530104 14.7021618,18.1566686 L14.7021618,18.1542298 C14.6929398,18.1519986 14.5827177,17.9824517 14.5792887,18.0693915 C14.6056558,18.083194 14.6136828,18.1083082 14.5792887,18.1129782 C14.5792887,18.1290897 14.3876015,18.1070888 14.3703525,18.1049613 C14.3060064,18.1049613 14.0683652,18.0382842 14.0889653,17.9330016 L14.0867312,17.9330016 C14.0762623,17.9006489 14.1062142,17.8262662 14.1062142,17.7921234 C14.0994082,17.7860264 14.0924982,17.7804743 14.0867312,17.7735731 C14.0650141,17.7713419 13.83527,17.7276514 13.83527,17.7276514 C13.7974209,17.7184412 13.8065649,17.6725195 13.7847439,17.665748 C13.7732619,17.6555 13.725983,17.6689911 13.719177,17.6738427 C13.7009148,17.702641 13.6238918,17.7999326 13.5839126,17.7999326 L13.5839126,17.8021639 C13.5470767,17.8043691 13.5184756,17.798817 13.4885236,17.8251506 C13.4885236,17.8938774 13.3989276,17.866506 13.3702225,17.866506 C13.3597536,17.8538452 13.3334905,17.8378374 13.3278014,17.8251506 C13.3173585,17.8251506 13.2302823,17.8502908 13.2302823,17.8538452 C13.1670533,17.8734073 13.1223202,17.8125935 13.0672221,17.8125935 C13.0578703,17.8251506 13.0143321,17.8744191 13.004097,17.8744191 C12.9845101,17.8916462 12.891459,17.8515102 12.873093,17.866506 C12.8467,17.8721879 12.8524929,17.9006489 12.8524929,17.9330016 C12.880003,17.9582196 12.8867831,18.050037 12.884549,18.0819746 C12.9098251,18.0819746 12.908708,18.213928 12.901798,18.2311551 C12.8939009,18.2736002 12.8594029,18.2597199 12.8260999,18.254064 L12.8260999,18.2518328 C12.7583248,18.2379266 12.7203719,18.1635439 12.7203719,18.0969705 C12.7203719,18.0510488 12.7157998,18.0751771 12.6928618,18.0409305 C12.6228527,18.0409305 12.6250868,18.113082 12.5792107,18.113082 L12.5792107,18.1153132 C12.5459336,18.113082 12.5413616,18.1004211 12.5114356,18.0969705 C12.4999796,18.0442773 12.3805355,17.9478937 12.3805355,17.9455587 C12.3609485,17.9387613 12.3128644,17.957104 12.3002653,17.9455587 C12.2852504,17.9409925 12.2645464,17.9134395 12.2599744,17.8996371 L12.2577403,17.8996371 C12.2472974,17.8356062 12.2715603,17.7244084 12.2498432,17.6702105 C12.2175793,17.6599624 12.1968753,17.6599624 12.1739372,17.6313976 C12.1338541,17.6038186 12.1188392,17.4524069 12.0763142,17.3973788 C12.0062012,17.3492519 11.9706901,17.4387342 11.915592,17.4387342 L11.915592,17.4409654 C11.8386729,17.4202877 11.8697159,17.3768048 11.854701,17.3022146 C11.830542,17.2137441 11.8729631,17.1565885 11.89255,17.0785476 C11.893771,17.077432 11.896005,17.077432 11.897226,17.0761088 C11.897226,17.0280857 12.0325682,16.9674795 12.0659752,16.9293671 C12.0774312,16.9261241 12.0785482,16.9237891 12.0865752,16.9133594 C12.1048374,16.9043307 12.1910823,16.5166949 12.1440113,16.4628602 C12.1440113,16.4355148 12.0487262,16.4009568 12.0487262,16.3722623 C12.0405952,16.3665026 12.0325682,16.3410511 12.0314772,16.3410511 C12.0314772,16.2633216 12.0038632,16.2357686 11.9614421,16.1818301 C11.9338541,16.1748511 11.901772,16.1623718 11.881068,16.1876157 C11.833997,16.2117441 11.882289,16.3364849 11.810955,16.3470443 C11.7639879,16.3628445 11.7100068,16.2712347 11.6652478,16.2390895 C11.6226189,16.2390895 11.5353608,16.1715042 11.4871467,16.1565084 L11.4871467,16.1589471 C11.4435307,16.166938 11.3805095,16.2312024 11.3517785,16.2666684 C11.2265674,16.2805487 11.1163713,16.4375385 10.9992651,16.4776745 C10.9521941,16.5041119 10.6318408,16.5692843 10.5698327,16.4776745 C10.5445567,16.4524306 10.5744048,16.356047 10.5766388,16.320581 C10.5341138,16.2918086 10.5077208,16.2782137 10.5089417,16.2172183 C10.4928097,16.2080859 10.3929526,16.187512 10.3929526,16.1862926 C10.3080325,16.1644992 10.2505965,16.0371121 10.1415174,16.0371121 C10.1415174,16.0359965 9.97378127,16.0934634 9.95318119,16.130045 C9.95318119,16.1633836 9.96362411,16.2196312 9.94505027,16.2481182 C9.89117314,16.2758009 9.8899522,16.2768905 9.82682712,16.2563425 C9.78897804,16.1781979 9.82794415,16.1231698 9.82906117,16.0475677 C9.7912121,16.0212081 9.70974697,16.0212081 9.66833899,16.0370083 C9.6259179,16.0464521 9.58684789,16.1024921 9.53754278,16.0886118 C9.48356174,16.0715663 9.45493465,16.024555 9.41921572,15.9808645 C9.34453069,15.9658687 9.28496451,15.9695268 9.21027948,15.9682037 C9.15284345,15.9142911 9.10242132,15.8273254 9.05420726,15.7618676 C9.01279928,15.735508 8.96339027,15.7629832 8.92330714,15.707955 C8.91782591,15.7026883 8.91205892,15.6976032 8.90605814,15.6929592 C8.87735312,15.6529269 8.84872602,15.5565433 8.84516712,15.4923827 C8.81422803,15.4705894 8.72463198,15.4923827 8.70969497,15.4612753 C8.69013399,15.4612753 8.64669977,15.374128 8.64669977,15.3605331 C8.60874679,15.3305413 8.53982875,15.3112906 8.51122763,15.2755132 C8.51000669,15.2745014 8.50766872,15.2745014 8.5065517,15.273282 C8.5065517,15.24246 8.40214852,15.117304 8.40092758,15.1160846 C8.2953814,15.1345311 8.17017033,15.1930099 8.08867923,15.0852886 C8.06452024,15.0578134 8.05875326,14.9980375 8.05875326,14.948769 C7.95089509,14.860506 7.91637113,14.7504497 7.76710498,14.7504497 C7.73606199,14.7413173 7.74416694,14.7400979 7.72691794,14.7252058 C7.73148996,14.6726164 7.72247581,14.6424949 7.75910394,14.6093639 L7.75910394,14.6036821 C7.81430592,14.5657772 7.77980793,14.4018084 7.77980793,14.3491153 L7.77746996,14.3491153 C7.77746996,14.2803885 7.77055997,14.3123261 7.79025084,14.27219 C7.84758297,14.27219 7.88543204,14.3168923 7.93595809,14.3180857 C7.94175105,14.2963183 7.94855713,14.3100948 7.94855713,14.2825159 L7.95089509,14.2825159 C7.95089509,14.1781414 7.91982612,14.0898785 7.90257713,13.9889287 L7.90034307,13.9889287 C7.87509304,13.9097722 7.9612341,13.867405 7.9612341,13.8066171 C7.95544114,13.7688161 7.94855713,13.7675967 7.93362012,13.7550137 C7.84056907,13.7354516 7.82799601,13.61852 7.8487,13.5440335 C7.87285898,13.4578721 7.60882468,13.2447385 7.55928577,13.289337 C7.53980272,13.2882214 7.5146566,13.2537672 7.51686468,13.2505241 C7.51686468,13.2022934 7.56162374,13.0704438 7.53756867,13.0290884 C7.49971959,13.0096301 7.37908054,12.9075647 7.35146657,12.8742261 C7.34923251,12.8720986 7.34650488,12.8705938 7.34356944,12.8697636 C7.29535538,12.796289 7.35603859,12.7285999 7.42615159,12.710361 C7.46522161,12.6312045 7.44685558,12.5474818 7.44685558,12.4625657 L7.44462153,12.4625657 C7.44462153,12.3697365 7.34588143,12.4304465 7.29647241,12.4316659 C7.25963645,12.404087 7.21944942,12.3856405 7.25862334,12.2974813 C7.33665945,12.2801504 7.31605937,12.1793044 7.27922341,12.1793044 C7.26898832,12.157511 7.36313042,12.1035985 7.37461243,12.0509054 C7.44462153,12.0509054 7.66046775,11.8593576 7.78679585,11.9018286 C7.87405394,11.9168245 7.80505796,12.0245458 7.922268,12.0303314 C8.09213422,11.885795 8.18061325,11.8754691 8.3975765,11.8754691 L8.3975765,11.8732379 C8.41594252,11.8674523 8.62963262,11.8444655 8.62963262,11.8318824 C8.69966769,11.7941852 8.70423972,11.7608466 8.69732973,11.7183755 C8.70413581,11.7127197 8.89935597,11.468375 8.900473,11.4638088 C8.92442417,11.359123 8.92717777,11.250779 8.90850002,11.1449776 L8.91073408,11.1449776 C8.92107308,11.1117428 8.92574901,11.0658211 8.89803113,11.0441316 C8.87511906,11.0108968 8.89125103,10.9844334 8.93032104,10.9844334 C9.08870525,10.9350871 9.21505933,11.0303551 9.36320844,11.0303551 C9.36432547,11.0281239 9.36432547,11.0257889 9.36554641,11.0223383 C9.40451251,10.9754307 9.3229175,10.8400267 9.47340458,10.7619859 C9.4953295,10.7251966 9.57113156,10.5830211 9.57669072,10.5612278 L9.57902869,10.5612278 C9.59749862,10.5325333 9.6318927,10.5429889 9.65940277,10.5464135 C9.65940277,10.6174754 9.98199013,10.6668217 9.99700507,10.6644867 L9.99700507,10.6622554 C10.0464141,10.6588308 10.0566752,10.6483752 10.0704692,10.6024795 C10.0715862,10.6024795 10.0658192,10.4419353 10.0750412,10.420142 L10.0772752,10.420142 C10.1047853,10.3089701 10.2621564,10.3204375 10.3458816,10.2916392 L10.3458816,10.289408 C10.3929526,10.2491682 10.3745866,10.1654714 10.4745476,10.1654714 C10.5216187,10.1506831 10.5927708,10.1803635 10.5927708,10.2378304 L10.5950048,10.2378304 C10.5962258,10.2698459 10.6156049,10.3124207 10.6156049,10.3306596 C10.6018888,10.3707957 10.79368,10.5244386 10.8268531,10.5187568 C10.8555841,10.5268774 10.9417252,10.5773393 10.9474143,10.5992364 C10.9474143,10.6576114 10.9554413,10.7778898 10.9979403,10.8100349 C11.0129552,10.8891655 11.0760803,11.0130242 10.9876013,11.080817 L10.9876013,11.0852795 C10.9083442,11.1701956 10.8910953,11.2333443 10.9668973,11.3192983 C11.0138904,11.3536487 11.1023695,11.3638708 11.1632605,11.3788667 C11.2000964,11.3766355 11.8154231,11.6036493 11.7924851,11.7596272 L11.7947191,11.7596272 C11.7970571,11.8168866 11.818982,11.9131664 11.8750932,11.9420425 C11.8763142,11.9453893 11.8763142,11.94884 11.8775351,11.9523943 L11.8797692,11.9523943 C11.8797692,11.9546256 11.8763142,12.0624506 11.8923422,12.0624506 L11.8923422,12.0671206 C11.8981352,12.0715831 11.9039022,12.0773427 11.9095912,12.081909 L11.9141632,12.0900296 C11.9818344,12.0900296 12.0587534,12.1209294 12.1381144,12.1209294 C12.1989015,12.1393759 12.3184235,12.187399 12.3688717,12.187399 C12.3698848,12.189734 12.3698848,12.1908496 12.3711057,12.1931846 C12.5180339,12.1931846 12.658182,12.1852716 12.8038892,12.1852716 L12.8038892,12.1875028 C12.9532593,12.2071687 13.0312954,12.3618235 13.1415954,12.377935 C13.1909005,12.3206756 13.2988886,12.4008439 13.3206836,12.4318475 L13.3206836,12.4340787 C13.4285678,12.4340787 13.4538178,12.4938806 13.5170468,12.5420076 C13.5308408,12.5603503 13.5446608,12.5625815 13.5675728,12.5625815 C13.5998627,12.465212 14.2289834,12.3275768 14.2289834,12.2335282 L14.2336594,12.2335282 L14.2336594,12.231297 C14.3346335,12.201409 14.4690666,12.289672 14.5906408,12.2645318 C14.6078898,12.2093999 14.722658,12.0993436 14.763962,12.0615426 C14.813475,12.0168403 15.0062792,11.8700986 14.9832373,11.8424418 C14.9650791,11.7725994 14.8489861,11.4685566 15.0282042,11.4685566 L15.0282042,11.4708916 C15.0304382,11.4708916 15.2498174,11.613093 15.2498174,11.5579611 C15.3118254,11.5579611 15.4335815,11.4044219 15.4484146,11.3470588 C15.5217748,11.3320629 15.6528827,11.3286123 15.6872768,11.2598855 C15.7355688,11.2231222 15.7791069,11.0924661 15.7929009,11.0924661 C15.8262039,11.0511366 15.884757,11.0385535 15.9339582,11.0259964 L15.9421671,11.0259964 C15.9651051,10.9971981 16.0521813,10.9250466 16.0799772,10.9250466 C16.0799772,10.9112701 16.3255415,10.9067039 16.3611566,10.896378 C16.3611566,10.8642329 16.3532594,10.8275474 16.3532594,10.8034451 C16.3222944,10.702599 16.2004344,10.6393725 16.1040322,10.5844221 C16.0626243,10.5831249 16.0467001,10.6337944 15.9903811,10.6337944 C15.965209,10.662463 15.9615722,10.6898344 15.937621,10.7207342 C15.878964,10.718503 15.7722229,10.6681448 15.7343478,10.6794826 L15.7343478,10.6817138 C15.6770157,10.6817138 15.6300486,10.731086 15.5404525,10.7276354 C15.5277496,10.7035071 15.5081626,10.6898344 15.5081626,10.6531489 C15.5414656,10.6141285 15.5978886,10.5670913 15.5816527,10.5086125 C15.5816527,10.3847797 15.6171638,10.3045076 15.6424138,10.1760049 C15.6446479,10.174993 15.6458688,10.1737736 15.6469858,10.1737736 C15.6578444,10.1567541 15.6734828,10.1431851 15.6918488,10.1347532 C15.813501,10.1347532 15.9444011,10.1462206 16.0317891,10.0440515 C16.0396862,10.0373578 16.0467001,10.0303787 16.0547271,10.0235813 C16.0547271,9.95589227 16.0994602,9.85504625 16.0994602,9.77700539 L16.1016943,9.77700539 C16.1016943,9.67496593 16.2165663,9.50176089 16.2199174,9.50176089 C16.2498434,9.42950564 16.1648194,9.35278794 16.1096174,9.32398962 C16.1096174,9.31944934 16.1073833,9.29532102 16.1052532,9.29532102 C16.1166053,9.22195016 16.1222943,9.21271394 16.1705084,9.1749129 C16.2257883,9.16103263 16.2762364,9.14380552 16.3289965,9.12546281 C16.3610786,9.05896722 16.5494148,9.00163002 16.6206448,9.00163002 C16.6711709,8.99016258 16.7286069,9.0429595 16.776795,9.0429595 L16.776795,9.04519073 C16.8686511,9.04062451 16.9191771,9.0327374 17.0006682,9.06830722 L17.0006682,9.07053844 C17.0040193,9.0718616 17.0074483,9.0725621 17.0110072,9.07276966 L17.0110072,9.07500088 L17.0155792,9.07500088 C17.0178133,9.0772321 17.2970703,9.37437371 17.2970703,9.43062125 L17.2993044,9.43062125 C17.3005253,9.43627713 17.3026555,9.44084335 17.3038505,9.44652518 C17.3085264,9.44997579 17.3119814,9.4534264 17.3165534,9.45695485 L17.3165534,9.46152107 C17.3578575,9.50043772 17.4037076,9.54635937 17.4451156,9.57969797 L17.4451156,9.58758508 L17.4473496,9.58758508 C17.4473496,9.65641566 17.4829646,9.69310109 17.5299577,9.72867091 C17.5299577,9.73546835 17.5321918,9.73546835 17.5380627,9.73910057 C17.5426347,9.75845512 17.5586628,9.84684781 17.5828218,9.84684781 C17.5840427,9.84796342 17.5840427,9.85019464 17.5850558,9.85138809 C17.6413748,9.85138809 17.7447649,9.83883098 17.7884069,9.8571737 C17.7884069,9.88231385 17.8972782,9.85828931 17.9295421,9.86752553 C17.9295421,9.87328519 17.9730803,9.89051229 17.9800941,9.89852912 C17.9858611,9.94888727 18.0856144,9.97768559 18.1430504,9.99135831 C18.1459079,10.0547925 18.2296071,10.2256625 18.2973042,10.2256625 Z M17.3788472,17.4800637 C17.3856533,17.4091316 17.3947714,17.3448932 17.3994473,17.2692652 L17.4017853,17.2692652 C17.4017853,17.1775516 17.4465443,17.1591051 17.4465443,17.081168 L17.4487784,17.081168 C17.4487784,16.9984831 17.5292304,16.8495102 17.5946934,16.7899158 C17.6049285,16.7759317 17.6934335,16.7601056 17.7152286,16.7669031 L17.7152286,16.7691343 C17.8758728,16.7932626 17.7725607,16.8882193 17.7725607,16.9594627 L17.7714437,16.9594627 C17.7714437,17.0604125 17.8103318,17.2071542 17.7840427,17.298764 C17.7840427,17.3391076 17.7461936,17.3722386 17.7461936,17.4021526 C17.7243726,17.4363992 17.6484666,17.4469327 17.6484666,17.5030764 L17.6462326,17.5030764 C17.6106176,17.6016912 17.6553766,17.6646324 17.5728724,17.7631434 L17.5705344,17.7631434 L17.5705344,17.7609122 L17.5683004,17.7609122 C17.5683004,17.7312058 17.5050974,17.6980748 17.5004214,17.6556037 L17.4981874,17.6556037 C17.4397382,17.5845679 17.4029023,17.5652133 17.3788472,17.4800637 Z M14.7079548,18.5374032 C14.8032399,18.5282967 15.013397,18.4378025 15.118008,18.481467 C15.1444011,18.487045 15.1938101,18.5088384 15.2006162,18.5374032 C15.2247492,18.5718833 15.1593121,18.6533489 15.103097,18.8288889 C15.1017722,18.8300045 15.1001356,18.8308088 15.0984211,18.8311201 L15.0984211,18.8368798 C15.0523631,18.9308246 14.8353999,19.0179979 14.8297108,18.9963083 L14.8193718,18.9963083 L14.8193718,18.9985396 C14.7804057,19.0099811 14.6230087,18.9516061 14.6230087,18.913805 C14.6217877,18.9124819 14.6195537,18.9124819 14.6184366,18.91147 C14.5542205,18.6498983 14.6975898,18.7222573 14.7079548,18.5374032 Z" id="Fill-2" fill="#0078FF"></path>
                </g>
            </g>
        </g>
    </g>
</svg>